<svg width="24" height="24" viewBox="0 0 24 24" xmlns="http://www.w3.org/2000/svg">
<path fill-rule="evenodd" clip-rule="evenodd" d="M2.5 10.0001L4.64619 19.4433C4.85314 20.3539 5.66266 21.0001 6.59646 21.0001H17.4035C18.3373 21.0001 19.1469 20.3539 19.3538 19.4433L21.5 10.0001H2.5ZM3.75277 11.0001L5.62132 19.2217C5.7248 19.677 6.12956 20.0001 6.59646 20.0001H17.4035C17.8704 20.0001 18.2752 19.677 18.3787 19.2217L20.2472 11.0001H3.75277Z" />
<path fill-rule="evenodd" clip-rule="evenodd" d="M23 11.0001H1V10.0001H23V11.0001Z" />
<path fill-rule="evenodd" clip-rule="evenodd" d="M11 5.00008L5 11.0001L4.29289 10.293L10.2929 4.29297L11 5.00008Z" />
<path fill-rule="evenodd" clip-rule="evenodd" d="M14 5.00008L20 11.0001L20.7071 10.293L14.7071 4.29297L14 5.00008Z" />
<path fill-rule="evenodd" clip-rule="evenodd" d="M8 17.0001V14.0001H9V17.0001H8Z" />
<path fill-rule="evenodd" clip-rule="evenodd" d="M12 17.0001V14.0001H13V17.0001H12Z" />
<path fill-rule="evenodd" clip-rule="evenodd" d="M16 17.0001V14.0001H17V17.0001H16Z" />
</svg>
