<svg width="16" height="16" viewBox="0 0 16 16" fill="none" xmlns="http://www.w3.org/2000/svg">
<path fill-rule="evenodd" clip-rule="evenodd" d="M13.9016 1.69207C12.9253 0.71576 11.3424 0.715763 10.3661 1.69207L1.7713 10.2869C1.30246 10.7557 1.03906 11.3916 1.03906 12.0546V14.4861V14.9861L1.53906 14.9861L3.97057 14.9861C4.63361 14.9861 5.2695 14.7227 5.73834 14.2539L14.3331 5.65911C15.3094 4.6828 15.3094 3.09989 14.3331 2.12358L13.9016 1.69207ZM11.0732 2.39918C11.659 1.81339 12.6087 1.81339 13.1945 2.39918L13.626 2.83069C14.2118 3.41647 14.2118 4.36622 13.626 4.95201L12.9489 5.62911L10.3961 3.07629L11.0732 2.39918ZM9.68897 3.78339L2.4784 10.994C2.1971 11.2753 2.03906 11.6568 2.03906 12.0546L2.03906 13.9861L3.97057 13.9861C4.36839 13.9861 4.74993 13.8281 5.03123 13.5468L12.2418 6.33622L9.68897 3.78339Z" fill="#C5C3C6"/>
</svg>
