<svg width="24" height="24" viewBox="0 0 24 24" xmlns="http://www.w3.org/2000/svg">
<path d="M11.6486 6.65828L11.9978 6.999L12.347 6.65828L12.3517 6.65364C13.44 5.59181 14.3213 4.73187 15.8514 4.535C17.4138 4.33399 19.0205 5.02167 20.1285 6.18629C21.2342 7.3485 21.7858 8.92151 21.3506 10.451L21.3495 10.455C21.0727 11.4591 20.3592 12.5976 19.3953 13.7628C18.4384 14.9195 17.2676 16.064 16.1252 17.0796C14.9841 18.0939 13.8795 18.9725 13.0596 19.5978C12.65 19.9102 12.312 20.1589 12.077 20.3292C12.0491 20.3494 12.0227 20.3684 11.9978 20.3864C11.9729 20.3684 11.9465 20.3493 11.9186 20.3291C11.6835 20.1588 11.3455 19.91 10.9358 19.5975C10.1158 18.9721 9.01101 18.0933 7.86978 17.0788C6.72718 16.063 5.55626 14.9185 4.59932 13.7619C3.6353 12.5967 2.9218 11.4585 2.64524 10.455L2.64497 10.454C2.21745 8.91491 2.77094 7.3405 3.87394 6.18065C4.97932 5.0183 6.58122 4.33385 8.14414 4.535C9.67441 4.73194 10.5558 5.59191 11.644 6.6538L11.6486 6.65828Z"  stroke="currentColor" />
</svg>
