<svg width="24" height="24" viewBox="0 0 24 24" xmlns="http://www.w3.org/2000/svg">
<path fill-rule="evenodd" clip-rule="evenodd" d="M11.9978 7.69758L11.2994 7.01614C10.1973 5.94074 9.42584 5.20407 8.08032 5.03091C6.70174 4.85348 5.25146 5.45769 4.23626 6.52521C3.22581 7.58774 2.75638 8.98693 3.12673 10.3202L3.12727 10.3222C3.37567 11.2235 4.03566 12.2962 4.98456 13.4431C5.91932 14.573 7.06991 15.6987 8.20198 16.7051C9.33128 17.709 10.4258 18.5797 11.239 19.1999C11.5335 19.4245 11.7904 19.6158 11.9978 19.7681C12.2053 19.6158 12.4621 19.4247 12.7564 19.2002C13.5695 18.5801 14.6638 17.7096 15.793 16.7059C16.9249 15.6997 18.0753 14.574 19.01 13.4441C19.9588 12.2971 20.6189 11.2241 20.8674 10.3222L20.8696 10.3142L20.8697 10.3142C21.2457 8.99279 20.7799 7.59636 19.7663 6.53093C18.748 5.46066 17.2928 4.85367 15.9153 5.03091C14.5698 5.20402 13.7983 5.94071 12.6962 7.01614L11.9978 7.69758ZM11.9978 21C11.9978 21 3.38209 15.0106 2.16321 10.5879C1.19381 7.0979 4.71345 3.58935 8.20796 4.03909C9.90458 4.25744 10.8928 5.22196 11.9551 6.25874C11.9693 6.27262 11.9836 6.28651 11.9978 6.30041C11.9978 6.30041 11.9978 6.3004 11.9978 6.3004C12.0121 6.28645 12.0264 6.27251 12.0407 6.25859C13.1029 5.22187 14.0911 4.25736 15.7876 4.03909C19.2819 3.58951 22.8204 7.11258 21.8315 10.5879C20.612 15.0128 11.9978 21 11.9978 21Z" />
</svg>
