<svg width="21" height="17" viewBox="0 0 21 17" fill="none" xmlns="http://www.w3.org/2000/svg">
<path d="M10.1486 2.65828L10.4978 2.999L10.847 2.65828L10.8517 2.65364C11.94 1.59181 12.8213 0.731872 14.3514 0.534999C15.9138 0.333986 17.5205 1.02167 18.6285 2.18629C19.7342 3.3485 20.2858 4.9215 19.8506 6.45101L19.8495 6.45501C19.5727 7.4591 18.8592 8.59755 17.8953 9.76281C16.9384 10.9195 15.7676 12.064 14.6252 13.0796C13.4841 14.0939 12.3795 14.9725 11.5596 15.5978C11.15 15.9102 10.812 16.1589 10.577 16.3292C10.5491 16.3494 10.5227 16.3684 10.4978 16.3864C10.4729 16.3684 10.4465 16.3493 10.4186 16.3291C10.1835 16.1588 9.84552 15.91 9.43579 15.5975C8.6158 14.9721 7.51101 14.0933 6.36978 13.0788C5.22718 12.063 4.05626 10.9185 3.09932 9.76188C2.1353 8.59669 1.4218 7.45852 1.14524 6.45501L1.14497 6.45403C0.717447 4.91491 1.27094 3.3405 2.37394 2.18065C3.47932 1.0183 5.08122 0.33385 6.64414 0.534997C8.17441 0.731942 9.05575 1.59191 10.144 2.6538L10.1486 2.65828Z" stroke="black"/>
</svg>
