<svg width="24" height="24" viewBox="0 0 24 24" xmlns="http://www.w3.org/2000/svg">
<path fill-rule="evenodd" clip-rule="evenodd" d="M12 11C13.9332 11 15.5 9.42915 15.5 7.5C15.5 5.56603 13.934 4 12 4C10.066 4 8.5 5.56603 8.5 7.5C8.5 9.42915 10.0668 11 12 11ZM6.12482 15.8668C4.66811 16.7075 4 17.7459 4 18.75V20H20V18.75C20 17.7459 19.3319 16.7075 17.8752 15.8668C16.4326 15.0344 14.3634 14.5 12 14.5C9.63656 14.5 7.56736 15.0344 6.12482 15.8668ZM21 18.75C21 15.7519 17 13.5 12 13.5C7 13.5 3 15.7519 3 18.75V21H21V18.75ZM16.5 7.5C16.5 9.98063 14.4862 12 12 12C9.51375 12 7.5 9.98063 7.5 7.5C7.5 5.01375 9.51375 3 12 3C14.4862 3 16.5 5.01375 16.5 7.5Z" />
</svg>
