<svg width="190" height="34" viewBox="0 0 190 34" fill="none" xmlns="http://www.w3.org/2000/svg">
<g clip-path="url(#clip0_1329_40614)">
<path fill-rule="evenodd" clip-rule="evenodd" d="M182.685 3.30672C184.774 4.73832 186.523 6.61092 187.809 8.79247L187.822 8.71556C189.408 11.4221 190.157 14.5379 189.974 17.6699C189.792 20.8018 188.686 23.8095 186.797 26.3135C182.365 32.2479 173.987 34.132 166.391 32.6196C162.938 32.0695 159.741 30.4571 157.246 28.0063C154.751 25.5555 153.08 22.3879 152.466 18.9437L152.466 18.9411L152.466 18.9388C152.389 18.338 152.312 17.7368 152.223 16.9826C152.162 14.0865 152.879 11.2271 154.299 8.70234C155.718 6.17757 157.788 4.07976 160.293 2.62742C163.781 0.844549 167.662 -0.0279905 171.576 0.0907658C175.491 0.209522 179.312 1.31573 182.685 3.30672ZM174.931 30.1397C176.843 29.5985 178.583 28.5719 179.982 27.1595V27.2107C184.094 23.3015 184.914 16.2521 182.352 11.1252C181.55 9.32743 180.395 7.70912 178.955 6.36613C177.516 5.02314 175.823 3.9828 173.974 3.30672C172.123 2.68812 170.147 2.54232 168.225 2.88257C166.303 3.22281 164.497 4.03832 162.97 5.25493C160.942 7.05607 159.481 9.40821 158.765 12.0251C158.048 14.642 158.108 17.4108 158.935 19.9947C159.584 22.4392 160.861 24.6715 162.638 26.4702C164.416 28.2688 166.632 29.5713 169.068 30.2484C170.999 30.7184 173.019 30.6809 174.931 30.1397Z" fill="black"/>
<path d="M92.0921 11.6509L104.031 23.6093L104.061 23.6343C104.128 23.6918 104.196 23.7503 104.275 23.7503L104.428 23.1479L104.403 4.72968C104.403 4.19194 104.365 3.70664 104.325 3.19879C104.282 2.6414 104.236 2.05684 104.236 1.34595L104.326 1.26904H107.72C107.766 1.9367 107.704 2.6852 107.645 3.38693C107.605 3.8705 107.567 4.33231 107.567 4.72968V29.5437L107.797 33.1453C107.207 33.3259 106.581 33.3524 105.978 33.2222C103.8 31.0656 101.709 28.932 99.5645 26.7443L99.5636 26.7434L99.561 26.7407L99.5571 26.7368C98.1228 25.2733 96.6647 23.7857 95.1409 22.2507L83.2787 10.2154C83.2557 10.2154 83.2179 10.196 83.1762 10.1745C83.0782 10.1241 82.9585 10.0626 82.9585 10.2154V28.1594C82.9585 28.8886 83.0212 29.674 83.083 30.4468C83.1429 31.1951 83.2018 31.9322 83.2018 32.5942L83.125 32.748L79.5638 32.6711C79.5638 32.038 79.62 31.3331 79.6769 30.6195C79.7353 29.8884 79.7943 29.1482 79.7943 28.467V5.70378C79.7555 4.8675 79.6773 4.01482 79.5979 3.14907C79.5203 2.30327 79.4415 1.44459 79.3972 0.576919L79.5638 0.500015L81.1394 0.576919L92.0921 11.6509Z" fill="black"/>
<path fill-rule="evenodd" clip-rule="evenodd" d="M132.316 17.508L132.239 17.367C135.172 16.8174 137.773 15.1432 139.49 12.7016C140.286 11.4962 140.71 10.0833 140.71 8.63854C140.71 7.19378 140.286 5.78088 139.49 4.5755C138.654 3.43138 137.574 2.48722 136.329 1.81119C135.084 1.13516 133.705 0.744111 132.29 0.666272C130.287 0.598852 128.375 0.733661 126.457 0.868883C124.364 1.01644 122.264 1.16448 120.031 1.05079L119.8 1.20459C119.951 2.27465 120.028 3.35385 120.031 4.43452L120.108 26.762C120.151 27.9802 120.05 29.1023 119.952 30.1843C119.875 31.0372 119.8 31.8658 119.8 32.6963C121.191 32.5886 122.702 32.6006 124.16 32.6123C124.61 32.6159 125.054 32.6194 125.488 32.6194L125.565 32.5554C125.186 29.4985 125.219 25.9875 125.252 22.5051V22.5034C125.267 20.92 125.282 19.3418 125.258 17.8156L125.411 17.5849C125.495 17.5849 125.585 17.5787 125.677 17.5723C126.026 17.5483 126.41 17.5219 126.603 17.8156C127.799 19.2363 129.048 20.6385 130.301 22.0441C133.353 25.4698 136.423 28.9157 138.785 32.6963C141.471 32.4786 144.17 32.4786 146.855 32.6963V32.5554C143.299 29.372 140.317 26.129 137.296 22.8441C135.67 21.0766 134.034 19.297 132.29 17.508H132.316ZM126.795 15.7136C126.631 15.6907 126.45 15.6871 126.271 15.6836C125.847 15.6752 125.426 15.6669 125.219 15.406V2.92209C126.396 2.56037 127.638 2.45977 128.857 2.6273C129.896 2.65398 130.912 2.94437 131.808 3.47122C132.704 3.99807 133.452 4.74411 133.981 5.63933C134.626 6.71451 134.946 7.95335 134.903 9.20645C134.86 10.4595 134.455 11.6734 133.738 12.7016C132.939 13.7439 131.889 14.5668 130.686 15.0935C129.483 15.6202 128.166 15.8335 126.859 15.7136H126.795Z" fill="black"/>
<path fill-rule="evenodd" clip-rule="evenodd" d="M28.5931 15.5983C28.4769 15.4955 28.4769 15.2384 28.4769 15.0983C28.3669 10.4592 28.4952 5.81758 28.8612 1.19169L28.7075 0.884079C26.8147 1.03786 24.9126 1.03786 23.0198 0.884079L22.9173 0.973799C23.1973 3.93806 23.2035 6.83223 23.2097 9.75965C23.2123 10.984 23.2149 12.2142 23.2376 13.4577C23.2821 14.1868 23.2085 14.9182 23.0198 15.6238L6.00796 15.4828L5.85423 15.329C5.90833 13.4797 5.89421 11.7128 5.88054 10.0029C5.85537 6.85389 5.83174 3.89769 6.23854 0.973799L6.00796 0.679005C4.08474 0.819992 2.1538 0.819992 0.230583 0.679005L0 0.819993C0.0402331 1.61168 0.101527 2.39985 0.161832 3.17532C0.216734 3.8813 0.270817 4.57675 0.307444 5.25473L0.384304 22.7758C0.369641 23.436 0.357774 24.0907 0.346037 24.7382C0.296253 27.4847 0.248788 30.1032 0 32.4784L0.0768614 32.6194C0.521266 32.6194 0.979043 32.6158 1.44392 32.6123C2.9623 32.6006 4.55646 32.5883 6.00796 32.6963L6.16168 32.6194C5.6952 28.9331 5.75226 25.3742 5.81235 21.6271C5.83311 20.3322 5.85423 19.0147 5.85423 17.6617L6.00796 17.5079H22.9173L23.0839 17.6617C23.0601 19.0814 23.0805 20.6041 23.1013 22.1653C23.1479 25.6503 23.1971 29.3272 22.7636 32.4784L22.8405 32.6963C24.7647 32.5873 26.6936 32.5873 28.6179 32.6963L28.7716 32.5553C28.3403 27.6026 28.2632 22.6254 28.541 17.6617L28.6561 17.5465H45.4759C45.5388 17.5664 45.6223 17.576 45.7089 17.586C45.9571 17.6145 46.2304 17.646 46.1164 17.931C45.5051 19.1543 44.915 20.3498 44.3331 21.5285C42.4763 25.2902 40.7037 28.8812 38.5969 32.658L38.6737 32.7349C39.2502 32.7019 39.8266 32.7113 40.4031 32.7207C41.1717 32.7333 41.9403 32.7459 42.7089 32.658C43.8234 29.8766 45.1685 26.8646 46.4239 24.2371C46.8133 23.4488 47.1825 22.6432 47.5482 21.8451C48.2291 20.3593 48.8982 18.8992 49.6648 17.6234L58.9266 17.5465L59.2468 17.7003C60.0977 19.6499 61.1407 21.7974 62.1394 23.8536C62.6443 24.893 63.1378 25.9092 63.5895 26.8646C64.2987 28.3101 64.8164 29.576 65.3594 30.9037C65.6108 31.5185 65.8677 32.1465 66.1515 32.8118C68.4126 32.5939 70.6882 32.5682 72.9537 32.7349C70.904 29.1973 68.8416 25.5957 67.0226 21.6865H67.0738C66.0319 19.5702 64.9541 17.4408 63.8726 15.3041C61.417 10.4525 58.9423 5.5632 56.8257 0.704794C56.5314 0.195468 55.9655 0.264273 55.3886 0.334412C55.0364 0.377236 54.6801 0.420558 54.379 0.333097L54.1356 0.486902C52.7109 4.29687 51.0465 8.01274 49.1524 11.6122C48.5505 12.9812 47.866 14.3124 47.1028 15.5983H28.5931ZM54.3405 7.77986C52.9955 10.3433 51.8041 12.9067 50.7025 15.4702V15.5214C53.1511 15.6752 55.6069 15.6752 58.0555 15.5214C57.1665 13.2977 56.1376 11.2053 55.0844 9.06336C54.8628 8.61264 54.6401 8.15974 54.4174 7.70296L54.3405 7.77986Z" fill="black"/>
</g>
<defs>
<clipPath id="clip0_1329_40614">
<rect width="190" height="33.299" fill="white"/>
</clipPath>
</defs>
</svg>
