<svg width="26" height="26" viewBox="0 0 26 26" fill="none" xmlns="http://www.w3.org/2000/svg">
<circle cx="13" cy="13" r="13" fill="#333333"/>
<path d="M20.1294 12.7554V12.7554C20.0748 10.582 20.1385 8.40741 20.3201 6.24019L20.2438 6.09608C19.3047 6.16812 18.3609 6.16812 17.4218 6.09608L17.3709 6.13811C17.5098 7.52686 17.5129 8.88277 17.516 10.2542V10.2543C17.5173 10.8279 17.5186 11.4042 17.5298 11.9868C17.5519 12.3284 17.5154 12.671 17.4218 13.0016L8.98097 12.9355L8.9047 12.8635C8.93154 11.9971 8.92453 11.1693 8.91775 10.3682V10.3682C8.90526 8.89292 8.89354 7.50795 9.09538 6.13811L8.98097 6C8.02673 6.06605 7.06865 6.06605 6.11441 6L6 6.06605C6.01996 6.43696 6.05037 6.80621 6.0803 7.16952C6.10754 7.50027 6.13437 7.82608 6.15254 8.14371L6.19068 16.3523C6.1834 16.6616 6.17752 16.9683 6.17169 17.2717C6.14699 18.5584 6.12344 19.7852 6 20.8979L6.03814 20.964C6.25864 20.964 6.48577 20.9623 6.71643 20.9606C7.46981 20.9552 8.26078 20.9494 8.98097 21L9.05724 20.964C8.82579 19.237 8.8541 17.5696 8.88391 15.8141C8.89422 15.2074 8.9047 14.5902 8.9047 13.9564L8.98097 13.8843H17.3709L17.4535 13.9564C17.4417 14.6214 17.4518 15.3348 17.4622 16.0662L17.4622 16.0663C17.4853 17.699 17.5097 19.4216 17.2946 20.8979L17.3328 21C18.2875 20.949 19.2446 20.949 20.1993 21L20.2756 20.9339C20.0616 18.6136 20.0234 16.2818 20.1612 13.9564L20.2183 13.9024H25.9617C25.9617 13.9024 26.0392 13.3403 25.9737 12.9897H20.1871C20.1294 12.9415 20.1294 12.8211 20.1294 12.7554Z" fill="white"/>
<path d="M13 25C6.37258 25 1 19.6274 1 13H-1C-1 20.732 5.26801 27 13 27V25ZM25 13C25 19.6274 19.6274 25 13 25V27C20.732 27 27 20.732 27 13H25ZM13 1C19.6274 1 25 6.37258 25 13H27C27 5.26801 20.732 -1 13 -1V1ZM13 -1C5.26801 -1 -1 5.26801 -1 13H1C1 6.37258 6.37258 1 13 1V-1Z" fill="white"/>
</svg>
