<svg width="33" height="20" viewBox="0 0 33 20" fill="none" xmlns="http://www.w3.org/2000/svg">
<path d="M6.30797 0H14.2834C15.3877 0 16.0626 0.920245 15.8172 2.02454L12.0748 17.9755C11.8294 19.0798 10.7252 20 9.55951 20H1.58405C0.479758 20 -0.195089 19.0798 0.05031 17.9755L3.79263 2.02454C4.03803 0.920245 5.14232 0 6.30797 0Z" fill="#D01F38"/>
<path d="M13.6089 0H22.8114C23.9157 0 23.4249 0.920245 23.1795 2.02454L19.4371 17.9755C19.1917 19.0798 19.2531 20 18.1488 20H8.94636C7.84206 20 7.16722 19.0798 7.41261 17.9755L11.1549 2.02454C11.4003 0.920245 12.5046 0 13.6089 0Z" fill="#162E50"/>
<path d="M22.4429 0H30.4184C31.5226 0 32.2588 0.920245 31.9521 2.02454L28.2098 17.9755C27.9644 19.0798 26.8601 20 25.6944 20H17.719C16.6147 20 15.8785 19.0798 16.1852 17.9755L19.9276 2.02454C20.1729 0.920245 21.3386 0 22.4429 0Z" fill="#007B7E"/>
<path fill-rule="evenodd" clip-rule="evenodd" d="M23.7309 11.7791L22.7493 14.9693H22.9947L22.8106 15.6441H22.5653L22.5039 15.8282H21.5837L21.645 15.6441H19.7432L19.9272 15.0306H20.1113L21.0929 11.7791L21.2769 11.1042H22.1972L22.0745 11.411C22.0745 11.411 22.3199 11.2269 22.5653 11.1656C22.8107 11.1042 24.1603 11.1042 24.1603 11.1042L23.9763 11.7791H23.7309V11.7791ZM22.0745 11.7791L21.8291 12.5766C21.8291 12.5766 22.1358 12.4539 22.2585 12.3926C22.4426 12.3312 22.6266 12.3312 22.6266 12.3312L22.8106 11.7177L22.0745 11.7791ZM21.7064 13.0061L21.461 13.865C21.461 13.865 21.7677 13.7423 21.8904 13.6809C22.0745 13.6196 22.2585 13.6196 22.2585 13.6196L22.4426 13.0061C22.4426 13.0061 21.7064 13.0061 21.7064 13.0061ZM21.0929 15.0306H21.8291L22.0745 14.2944H21.3383L21.0929 15.0306Z" fill="white"/>
<path d="M24.1608 11.1042H25.1424V11.4723C25.1424 11.5337 25.2037 11.595 25.3264 11.595H25.5105L25.3264 12.2085H24.7743C24.2835 12.2699 24.0995 12.0245 24.1608 11.8404V11.1042V11.1042Z" fill="white"/>
<path d="M24.2834 14.049H23.3018L23.4859 13.4969H24.5902L24.7742 13.0061H23.6699L23.854 12.3926H26.8601L26.6761 13.0061H25.6945L25.5104 13.4969H26.5534L26.3693 14.049H25.265L25.081 14.2944H25.5104L25.6331 14.9693C25.6331 15.0306 25.6331 15.092 25.6945 15.092C25.6945 15.092 25.8785 15.1533 25.9399 15.1533H26.0626L25.8785 15.8282H25.5104C25.4491 15.8282 25.3877 15.8282 25.265 15.8282C25.1423 15.8282 25.081 15.7668 25.0196 15.7055C24.9583 15.6441 24.8356 15.5828 24.8356 15.4601L24.7129 14.7852L24.2221 15.4601C24.038 15.7055 23.854 15.8282 23.4859 15.8282H22.811L22.9951 15.2147H23.2405C23.3018 15.2147 23.3632 15.2147 23.4245 15.1533C23.4859 15.1533 23.5472 15.092 23.5472 15.0306L24.2834 14.049Z" fill="white"/>
<path d="M13.7313 12.5767H16.2467L16.0626 13.1902H15.0197L14.8356 13.681H15.8786L15.6945 14.2945H14.6516L14.4062 15.1533C14.4062 15.276 14.6516 15.276 14.7743 15.276L15.2651 15.2147L15.081 15.8895H13.9154C13.7927 15.8895 13.7313 15.8895 13.67 15.8282C13.5473 15.8282 13.5473 15.7668 13.4859 15.7055C13.4246 15.6441 13.3632 15.5828 13.4246 15.4601L13.7313 14.3558H13.1792L13.3632 13.7423H13.9154L14.0994 13.2515H13.5473L13.7313 12.5767Z" fill="white"/>
<path d="M15.4489 11.4724H16.4918L16.3078 12.0859H14.8967L14.7127 12.2086C14.6514 12.27 14.6513 12.27 14.5286 12.27C14.4673 12.3313 14.2833 12.3927 14.0379 12.3927H13.6084L13.7925 11.7792H13.9151C14.0378 11.7792 14.0992 11.7792 14.1606 11.7178C14.2219 11.7178 14.2833 11.5951 14.3446 11.5338L14.59 11.043H15.6329L15.4489 11.4724Z" fill="white"/>
<path fill-rule="evenodd" clip-rule="evenodd" d="M16.983 11.1042H17.8419L17.7192 11.5337C17.7192 11.5337 18.0259 11.2883 18.21 11.2269C18.394 11.1656 18.8235 11.1042 18.8235 11.1042H20.2345L19.7437 12.7607C19.6824 13.0674 19.5597 13.1901 19.4983 13.3128C19.437 13.3742 19.3756 13.4969 19.2529 13.5582C19.1302 13.6196 19.0075 13.6809 18.9462 13.6809C18.8235 13.6809 18.7008 13.6809 18.5167 13.6809H17.1057L16.7376 14.9693C16.6762 15.092 16.6762 15.1533 16.7376 15.2147C16.7376 15.276 16.7989 15.276 16.8603 15.276L17.4738 15.2147L17.2897 15.9509H16.6149C16.3695 15.9509 16.2468 15.9509 16.1241 15.9509C16.0014 15.9509 15.8787 15.9509 15.8173 15.8895C15.756 15.8282 15.6333 15.7668 15.6333 15.7055C15.6333 15.6441 15.6947 15.5214 15.6947 15.3374L16.983 11.1042ZM18.8235 12.7607H17.3511L17.2897 13.0674H18.5781C18.7008 13.0674 18.7621 13.0674 18.7621 13.0674L18.8235 12.7607ZM17.4738 12.5153C17.4738 12.5153 17.7805 12.2699 18.2713 12.1472C18.394 12.1472 19.0689 12.1472 19.0689 12.1472L19.1916 11.7791H17.7192L17.4738 12.5153Z" fill="white"/>
<path d="M19.5595 13.7422L19.4982 14.1103C19.4368 14.233 19.4368 14.3557 19.3141 14.417C19.1914 14.4784 19.1301 14.6011 18.8233 14.6011H18.3325V15.0305C18.3325 15.1532 18.3325 15.1532 18.3939 15.1532L18.4552 15.2146H18.6393H19.1301L18.946 15.8894H18.3325C17.9644 15.8894 17.6577 15.8894 17.5963 15.8281C17.535 15.7667 17.4736 15.7054 17.4736 15.5827L17.535 13.8649H18.3939V14.233H18.5779C18.6393 14.233 18.7006 14.233 18.7006 14.233L18.762 14.1716L18.8233 13.9262H19.5595V13.7422V13.7422Z" fill="white"/>
<path d="M7.22818 5.09211C7.22818 5.21481 6.61468 7.7915 6.61468 7.7915C6.49198 8.2823 6.43064 8.65039 6.12389 8.89579C5.93984 9.01849 5.75579 9.07984 5.51039 9.07984C5.14229 9.07984 4.95824 8.89579 4.89689 8.52769V8.405L5.01958 7.73015C5.01958 7.73015 5.57173 5.39886 5.69443 5.09211C5.69443 5.09211 5.69443 5.09211 5.69443 5.03076C4.59014 5.03076 4.34475 5.03076 4.34475 5.03076L4.2834 5.21481L3.6699 7.85285L3.60855 8.09825L3.48584 8.83444C3.48584 9.07984 3.5472 9.20254 3.60855 9.38659C3.85395 9.87739 4.65149 9.93874 5.08094 9.93874C5.63308 9.93874 6.18523 9.81604 6.55332 9.63199C7.16682 9.26389 7.35087 8.71174 7.47357 8.1596L7.53492 7.9142C7.53492 7.9142 8.14842 5.52156 8.20977 5.15346C8.20977 5.15346 8.20977 5.15346 8.20977 5.09211C7.53493 5.09211 7.28952 5.09211 7.22818 5.09211Z" fill="white"/>
<path d="M10.5413 9.8774C10.1119 9.8774 9.98922 9.8774 9.55977 9.8774V9.81605C9.62112 9.632 9.62111 9.44795 9.68246 9.26391L9.74381 9.01851C9.80516 8.65041 9.92785 8.22096 9.92785 8.03691C9.92785 7.97556 9.98921 7.73016 9.74381 7.73016C9.62111 7.73016 9.55976 7.79151 9.43706 7.85286C9.37571 8.03691 9.25302 8.65041 9.19167 8.89581C9.06897 9.44796 9.06896 9.5093 9.00761 9.7547L8.94627 9.81605C8.51682 9.81605 8.39412 9.81605 7.90332 9.81605V9.7547C7.96467 9.44795 8.08737 9.07986 8.14872 8.77311C8.33276 7.91421 8.39411 7.54611 8.45546 7.11667H8.51682C9.00761 7.05532 9.06896 7.05532 9.6211 6.93262L9.68246 6.99397L9.6211 7.30071C9.68245 7.23936 9.80517 7.17802 9.86652 7.17802C10.1119 7.05532 10.3573 7.05532 10.5413 7.05532C10.7867 7.05532 10.9708 7.11667 11.0935 7.36207C11.2162 7.60746 11.1549 7.85286 10.9708 8.40501L10.9095 8.71176C10.6641 9.32526 10.664 9.44795 10.5413 9.8774Z" fill="white"/>
<path d="M12.1975 9.87729C11.9521 9.87729 11.8295 9.87729 11.6454 9.87729C11.5227 9.87729 11.3387 9.87729 11.0933 9.87729C11.1546 9.63189 11.2159 9.57054 11.2159 9.50919C11.2159 9.44784 11.2773 9.32514 11.3387 9.07974C11.4 8.773 11.4613 8.5276 11.4613 8.34355C11.5227 8.1595 11.5227 8.0368 11.5227 7.85275C11.7681 7.7914 11.8908 7.7914 12.0748 7.7914C12.2589 7.7914 12.3816 7.73005 12.627 7.6687C12.5657 7.85275 12.5043 8.0368 12.5043 8.22085C12.4429 8.4049 12.4429 8.58895 12.3816 8.773C12.3202 9.20244 12.2589 9.32514 12.2589 9.44784C12.2589 9.57054 12.2589 9.63189 12.1975 9.87729Z" fill="white"/>
<path d="M15.7557 8.52757C15.8784 7.91407 15.817 7.60732 15.633 7.42327C15.4489 7.17787 15.0808 7.05518 14.6514 7.05518C14.406 7.05518 13.8538 7.05518 13.4244 7.48462C13.1176 7.79137 12.995 8.15947 12.8723 8.52757C12.8109 8.89567 12.6882 9.57051 13.3017 9.81591C13.4857 9.87726 13.7925 9.93861 13.9765 9.93861C14.406 9.93861 14.8968 9.81591 15.2649 9.44781C15.633 9.14106 15.7557 8.71162 15.7557 8.52757ZM14.7127 8.46622C14.7127 8.58892 14.5901 8.95701 14.4674 9.14106C14.406 9.26376 14.2833 9.32511 14.1606 9.32511C14.0993 9.32511 13.9152 9.32511 13.9152 9.01837C13.9152 8.89567 13.9152 8.71162 13.9765 8.58892C14.0992 8.09812 14.2219 7.73002 14.5287 7.73002C14.8354 7.73002 14.8354 7.97542 14.7127 8.46622Z" fill="white"/>
<path d="M25.6333 9.93861C25.1425 9.93861 25.0198 9.93861 24.5903 9.93861V9.87726C24.713 9.38646 24.8357 8.95702 24.9584 8.46622C25.0811 7.85272 25.1425 7.60732 25.2038 7.23922H25.2652C25.756 7.17787 25.8787 7.17788 26.3695 7.05518V7.11652C26.3081 7.48462 26.1854 7.85272 26.1241 8.28217C25.756 9.07972 25.6946 9.50916 25.6333 9.93861Z" fill="white"/>
<path d="M25.8174 8.58891C25.9401 7.97541 25.3879 8.52756 25.3266 8.34351C25.2039 8.03676 25.2652 7.36191 24.7131 7.17786C24.4677 7.11651 23.9769 7.17786 23.5474 7.60731C23.2407 7.91406 23.118 8.28216 22.9953 8.65026C22.934 9.01835 22.8112 9.6932 23.4247 9.9386C23.6088 9.99995 23.7929 10.0613 23.9769 10.0613C24.5904 9.99995 25.0812 9.0797 25.4493 8.71161C25.756 8.34351 25.8174 8.77296 25.8174 8.58891ZM24.8971 8.52756C24.8971 8.65025 24.7744 9.01835 24.6517 9.2024C24.5904 9.3251 24.345 9.38645 24.2836 9.38645C24.2223 9.38645 24.0382 9.38645 24.0382 9.0797C24.0382 8.957 24.0382 8.77295 24.0996 8.65026C24.2223 8.22081 24.345 7.79136 24.6517 7.79136C24.8971 7.79136 24.9585 8.03676 24.8971 8.52756Z" fill="white"/>
<path d="M18.5163 9.8774C18.0868 9.8774 17.9641 9.8774 17.4733 9.8774V9.81605C17.5347 9.632 17.5347 9.44795 17.596 9.26391L17.6574 9.01851C17.7187 8.65041 17.8414 8.22096 17.8414 8.03691C17.8414 7.97556 17.9028 7.73016 17.6574 7.73016C17.5347 7.73016 17.4733 7.79151 17.3506 7.85286C17.2893 8.03691 17.1666 8.65041 17.1052 8.89581C16.9825 9.44796 16.9825 9.5093 16.9212 9.7547L16.8598 9.81605C16.4304 9.81605 16.3077 9.81605 15.8169 9.81605V9.7547C15.8782 9.44795 16.0009 9.07986 16.0623 8.77311C16.2463 7.91421 16.3077 7.54611 16.369 7.11667H16.4304C16.9212 7.05532 16.9826 7.05532 17.5347 6.93262L17.596 6.99397L17.5347 7.30071C17.596 7.23936 17.7187 7.17802 17.7801 7.17802C18.0255 7.05532 18.2709 7.05532 18.3936 7.05532C18.639 7.05532 18.8844 7.11667 18.9457 7.36207C19.0684 7.60746 18.9457 7.85286 18.823 8.40501L18.7617 8.71176C18.639 9.32526 18.639 9.44795 18.5163 9.8774Z" fill="white"/>
<path d="M22.443 6.56443C22.3816 6.87118 22.1362 7.17793 21.8908 7.30063C21.6454 7.42333 21.4 7.42333 21.0933 7.42333H20.9092V7.36198L21.216 5.95094V5.88959V5.82824H21.3386L22.0135 5.88959C22.3816 5.95094 22.5043 6.25769 22.443 6.56443ZM22.0135 5.09204H21.7067C20.8479 5.09204 20.4797 5.09204 20.357 5.09204C20.357 5.15339 20.2957 5.27609 20.2957 5.27609L19.989 6.68713C19.989 6.68713 19.2528 9.75462 19.1914 9.87732C19.9276 9.87732 20.2344 9.87732 20.4184 9.87732C20.4184 9.75462 20.6025 8.89572 20.6025 8.89572C20.6025 8.89572 20.7252 8.28222 20.7865 8.22087C20.7865 8.22087 20.8479 8.15953 20.9092 8.15953H20.9705C21.6454 8.15953 22.3816 8.15953 22.9337 7.73008C23.3018 7.42333 23.6086 6.99388 23.7313 6.50308C23.7926 6.38038 23.7926 6.19634 23.7926 6.07364C23.7926 5.88959 23.7313 5.70554 23.6086 5.52149C23.3018 5.09204 22.6883 5.09204 22.0135 5.09204Z" fill="white"/>
<path d="M29.5598 7.11652C29.0076 7.17787 28.9463 7.17787 28.4555 7.23922L28.3941 7.30057C28.026 8.09812 28.0874 7.91407 27.7806 8.52757V8.46622L27.7193 7.11652L27.658 7.05518C27.1672 7.17788 27.1058 7.17787 26.6764 7.23922L26.615 7.30057V7.36192C26.6764 7.66867 26.6764 7.60732 26.7377 8.09812C26.7377 8.34352 26.799 8.58892 26.799 8.83432C26.8604 9.20241 26.8604 9.44781 26.9218 9.99996C26.615 10.5521 26.4923 10.7362 26.1855 11.227V11.2883C26.6763 11.2883 26.7377 11.2883 27.1058 11.2883L27.1671 11.227C27.5966 10.5521 29.5598 7.11652 29.5598 7.11652Z" fill="white"/>
<path d="M12.6273 7.42327C12.8727 7.23922 12.934 6.99382 12.6886 6.87112C12.4432 6.74842 12.0751 6.74842 11.7683 6.99382C11.5229 7.17787 11.4616 7.42327 11.707 7.54597C11.9524 7.66867 12.3819 7.60732 12.6273 7.42327Z" fill="white"/>
<path d="M27.2896 11.1655L26.9215 11.8404C26.7988 12.0858 26.5534 12.2085 26.1853 12.2698H25.5718L25.7558 11.6563H25.8785C25.9399 11.6563 26.0012 11.6563 26.0012 11.6563L26.0626 11.595L26.308 11.2269H27.2896V11.1655Z" fill="white"/>
</svg>
