<svg width="80" height="16" viewBox="0 0 80 16" fill="none" xmlns="http://www.w3.org/2000/svg">
<path d="M35.0788 10.3873V7.42931C35.0788 6.31516 34.3844 5.56584 33.2656 5.55595C32.9469 5.53474 32.6284 5.60131 32.3434 5.74872C32.0584 5.89613 31.8173 6.11898 31.6453 6.39406C31.4885 6.12718 31.2642 5.90847 30.996 5.76098C30.7278 5.61348 30.4256 5.54265 30.1214 5.55595C29.8562 5.54233 29.5921 5.59976 29.3553 5.72255C29.1184 5.84534 28.9171 6.02923 28.7712 6.25602V5.67428H27.7681V10.3873H28.7808V7.77437C28.7808 6.95603 29.2245 6.52229 29.9092 6.52229C30.5747 6.52229 30.9123 6.96592 30.9123 7.76457V10.3873H31.925V7.77437C31.925 6.95603 32.3879 6.52229 33.0534 6.52229C33.7382 6.52229 34.0661 6.96592 34.0661 7.76457V10.3873H35.0788ZM50.0667 5.67428H48.4271V4.24466H47.4145V5.67428H46.4789V6.61097H47.4145V8.76037C47.4145 9.85485 47.8292 10.5056 49.0155 10.5056C49.4586 10.5069 49.8932 10.3805 50.2693 10.1408L49.98 9.26323C49.711 9.42727 49.4057 9.51887 49.0926 9.52947C48.5911 9.52947 48.4271 9.2139 48.4271 8.7407V6.61097H50.0667V5.67428ZM58.6217 5.55595C58.3771 5.54859 58.1351 5.60882 57.9213 5.73029C57.7074 5.85176 57.5295 6.02997 57.4065 6.24614V5.67428H56.413V10.3873H57.416V7.7448C57.416 6.96591 57.744 6.53207 58.3999 6.53207C58.6144 6.52906 58.8275 6.56927 59.0268 6.65042L59.3354 5.68417C59.1063 5.60032 58.865 5.55697 58.6217 5.55595V5.55595ZM45.6881 6.04899C45.1203 5.70384 44.4675 5.53271 43.8073 5.55595C42.6403 5.55595 41.888 6.12781 41.888 7.06448C41.888 7.83358 42.4474 8.30686 43.4793 8.45477L43.952 8.52377C44.5017 8.60259 44.7621 8.75048 44.7621 9.01675C44.7621 9.38156 44.3956 9.58861 43.7109 9.58861C43.16 9.60478 42.6199 9.43115 42.1773 9.09563L41.7047 9.8942C42.289 10.3114 42.9888 10.5257 43.7012 10.5056C45.0321 10.5056 45.8037 9.86464 45.8037 8.96742C45.8037 8.13918 45.1962 7.70536 44.1931 7.55746L43.7205 7.48844C43.2865 7.42931 42.9393 7.34063 42.9393 7.02513C42.9393 6.67999 43.2671 6.47295 43.817 6.47295C44.3218 6.48072 44.8164 6.61985 45.254 6.87722L45.6881 6.04899ZM72.5584 5.55595C72.3138 5.54858 72.0718 5.60881 71.858 5.73028C71.6441 5.85175 71.4662 6.02997 71.3431 6.24614V5.67428H70.3497V10.3873H71.3528V7.7448C71.3528 6.96591 71.6807 6.53207 72.3365 6.53207C72.5511 6.52905 72.7641 6.56926 72.9635 6.65042L73.2721 5.68417C73.043 5.60032 72.8017 5.55697 72.5584 5.55595V5.55595ZM59.6343 8.03073C59.6343 9.46046 60.6085 10.5056 62.0939 10.5056C62.696 10.5365 63.2877 10.336 63.7526 9.94353L63.2705 9.11531C62.9237 9.38555 62.5009 9.53423 62.0648 9.53925C61.2644 9.52947 60.676 8.93785 60.676 8.03073C60.676 7.1237 61.2644 6.53207 62.0648 6.52229C62.5009 6.52731 62.9237 6.67599 63.2705 6.94623L63.7526 6.11801C63.2877 5.72553 62.696 5.52504 62.0939 5.55595C60.6085 5.55595 59.6343 6.60109 59.6343 8.03073ZM69.0283 8.03073V5.67428H68.0254V6.24614C67.8541 6.02059 67.6326 5.84023 67.3792 5.72016C67.1258 5.60008 66.848 5.54378 66.5689 5.55595C65.2766 5.55595 64.2639 6.59131 64.2639 8.03073C64.2639 9.47026 65.2766 10.5056 66.5689 10.5056C66.848 10.5178 67.1258 10.4615 67.3792 10.3414C67.6326 10.2213 67.8541 10.041 68.0254 9.8154V10.3873H69.0283V8.03073ZM65.2958 8.03073C65.2958 7.20252 65.8263 6.52229 66.6944 6.52229C67.5238 6.52229 68.0832 7.17295 68.0832 8.03073C68.0832 8.88852 67.5238 9.53925 66.6944 9.53925C65.8263 9.53925 65.2958 8.85895 65.2958 8.03073ZM53.1917 5.55595C51.8414 5.55595 50.8962 6.56164 50.8962 8.03073C50.8962 9.52948 51.88 10.5056 53.2592 10.5056C53.9473 10.5303 54.6202 10.2951 55.1496 9.84497L54.6577 9.08575C54.2768 9.3978 53.8051 9.57125 53.317 9.57872C52.6708 9.57872 52.0825 9.27311 51.9378 8.42511H55.3618C55.3714 8.29698 55.381 8.16885 55.381 8.03073C55.3714 6.56164 54.4841 5.55595 53.1917 5.55595ZM53.1724 6.47295C53.8186 6.47295 54.2333 6.88701 54.3394 7.61667H51.9475C52.0536 6.93635 52.4586 6.47295 53.1724 6.47295ZM78.3356 8.03073V3.78125H77.3325V6.24614C77.1613 6.0206 76.9397 5.84025 76.6864 5.72017C76.433 5.60009 76.1552 5.54378 75.8762 5.55595C74.5837 5.55595 73.5711 6.59131 73.5711 8.03073C73.5711 9.47026 74.5837 10.5056 75.8762 10.5056C76.1552 10.5178 76.433 10.4615 76.6864 10.3414C76.9397 10.2213 77.1613 10.0409 77.3325 9.8154V10.3873H78.3356V8.03073ZM79.5078 9.95235C79.5476 9.95208 79.587 9.96005 79.6237 9.9758C79.6589 9.99086 79.6911 10.0126 79.7184 10.0399C79.7454 10.0672 79.7671 10.0996 79.7821 10.1353C79.7975 10.1719 79.8055 10.2114 79.8055 10.2513C79.8055 10.2912 79.7975 10.3306 79.7821 10.3673C79.767 10.4028 79.7454 10.435 79.7184 10.4622C79.691 10.4895 79.6589 10.5114 79.6237 10.5267C79.5871 10.5427 79.5476 10.5508 79.5078 10.5505C79.4492 10.5512 79.3918 10.5341 79.3426 10.5015C79.2934 10.4689 79.2547 10.4222 79.2314 10.3673C79.216 10.3306 79.2081 10.2912 79.2081 10.2513C79.2081 10.2114 79.216 10.1719 79.2314 10.1353C79.2617 10.0629 79.3186 10.0056 79.3899 9.9758C79.4273 9.96001 79.4674 9.95203 79.5078 9.95235V9.95235ZM79.5078 10.4846C79.5382 10.4848 79.5682 10.4786 79.5961 10.4663C79.6228 10.4544 79.6471 10.4374 79.6677 10.4164C79.7102 10.3725 79.7341 10.3132 79.7341 10.2514C79.7341 10.1896 79.7102 10.1304 79.6677 10.0865C79.6472 10.0654 79.6228 10.0487 79.5961 10.037C79.5682 10.0249 79.5382 10.0188 79.5078 10.019C79.477 10.0188 79.4464 10.0249 79.4178 10.037C79.3835 10.052 79.3533 10.0753 79.3298 10.1049C79.3063 10.1345 79.2903 10.1696 79.2831 10.207C79.2759 10.2444 79.2778 10.2831 79.2886 10.3196C79.2994 10.3561 79.3188 10.3893 79.3451 10.4164C79.366 10.4376 79.3907 10.4545 79.4178 10.4663C79.4463 10.4785 79.4769 10.4848 79.5078 10.4846V10.4846ZM79.5251 10.1114C79.5539 10.1095 79.5824 10.1179 79.6058 10.1353C79.6151 10.1431 79.6225 10.153 79.6274 10.1643C79.6323 10.1755 79.6346 10.1878 79.6341 10.2001C79.6344 10.2107 79.6326 10.2212 79.6287 10.231C79.6248 10.2407 79.6189 10.2496 79.6115 10.2569C79.5937 10.2731 79.5711 10.2827 79.5473 10.2844L79.6362 10.3892H79.5667L79.4842 10.2851H79.4576V10.3892H79.3996V10.1114H79.5251ZM79.4576 10.1635V10.2375H79.5244C79.5372 10.2382 79.5499 10.235 79.5609 10.2283C79.5654 10.2253 79.5691 10.221 79.5714 10.2161C79.5738 10.2111 79.5749 10.2056 79.5745 10.2001C79.5748 10.1947 79.5737 10.1893 79.5714 10.1845C79.569 10.1797 79.5654 10.1756 79.5609 10.1726C79.5499 10.166 79.5372 10.1628 79.5244 10.1635H79.4576ZM74.6031 8.03073C74.6031 7.20252 75.1336 6.52229 76.0015 6.52229C76.8309 6.52229 77.3903 7.17295 77.3903 8.03073C77.3903 8.88852 76.8309 9.53925 76.0015 9.53925C75.1336 9.53925 74.6031 8.85895 74.6031 8.03073ZM40.7306 8.03073V5.67428H39.7276V6.24614C39.5563 6.02059 39.3348 5.84023 39.0814 5.72015C38.828 5.60007 38.5502 5.54377 38.2712 5.55595C36.9788 5.55595 35.9661 6.59131 35.9661 8.03073C35.9661 9.47026 36.9788 10.5056 38.2712 10.5056C38.5502 10.5178 38.828 10.4615 39.0814 10.3414C39.3348 10.2213 39.5563 10.041 39.7276 9.8154V10.3873H40.7306V8.03073ZM36.9981 8.03073C36.9981 7.20252 37.5286 6.52229 38.3966 6.52229C39.226 6.52229 39.7854 7.17295 39.7854 8.03073C39.7854 8.88852 39.226 9.53925 38.3966 9.53925C37.5286 9.53925 36.9981 8.85895 36.9981 8.03073V8.03073Z" fill="black"/>
<path d="M14.9729 2.42847H8.90723V13.5716H14.9729V2.42847Z" fill="#FF5F00"/>
<path d="M9.29106 8.00028C9.2901 6.92712 9.52798 5.8678 9.9867 4.90251C10.4454 3.93723 11.1129 3.09128 11.9387 2.42872C10.9161 1.60698 9.68794 1.09595 8.39464 0.954048C7.10133 0.812142 5.79506 1.04508 4.62513 1.62624C3.45519 2.2074 2.46881 3.11333 1.77871 4.24049C1.08862 5.36765 0.722656 6.67055 0.722656 8.00028C0.722656 9.33001 1.08862 10.6329 1.77871 11.7601C2.46881 12.8872 3.45519 13.7932 4.62513 14.3743C5.79506 14.9555 7.10133 15.1884 8.39464 15.0465C9.68794 14.9046 10.9161 14.3936 11.9387 13.5719C11.113 12.9093 10.4454 12.0633 9.98671 11.0981C9.52799 10.1328 9.2901 9.07345 9.29106 8.00028V8.00028Z" fill="#EB001B"/>
<path d="M23.1557 8.00029C23.1557 9.33 22.7898 10.6329 22.0998 11.7601C21.4097 12.8872 20.4233 13.7932 19.2534 14.3743C18.0835 14.9555 16.7773 15.1884 15.484 15.0465C14.1907 14.9046 12.9626 14.3936 11.9399 13.5719C12.765 12.9086 13.432 12.0625 13.8907 11.0974C14.3493 10.1323 14.5876 9.07328 14.5876 8.00029C14.5876 6.92729 14.3493 5.8683 13.8907 4.90317C13.432 3.93804 12.765 3.09195 11.9399 2.42872C12.9626 1.60698 14.1907 1.09595 15.484 0.954047C16.7773 0.812142 18.0835 1.04509 19.2534 1.62625C20.4233 2.20742 21.4097 3.11336 22.0998 4.24052C22.7898 5.36768 23.1557 6.67058 23.1557 8.00029V8.00029Z" fill="#F79E1B"/>
<path d="M22.4912 12.3913V12.1631H22.5812V12.1167H22.3521V12.1631H22.4421V12.3913H22.4912ZM22.9361 12.3913V12.1162H22.8659L22.7851 12.3054L22.7043 12.1162H22.634V12.3913H22.6836V12.1838L22.7594 12.3627H22.8108L22.8866 12.1833V12.3913H22.9361Z" fill="#F79E1B"/>
</svg>
