<svg width="43" height="14" viewBox="0 0 43 14" fill="none" xmlns="http://www.w3.org/2000/svg">
<g clip-path="url(#clip0_1380_41123)">
<path d="M22.14 4.50609C22.1143 6.43237 23.8523 7.50731 25.1536 8.14368C26.4978 8.79724 26.943 9.21862 26.943 9.80338C26.9344 10.6977 25.8728 11.0933 24.8797 11.1105C23.1502 11.1363 22.14 10.6375 21.3437 10.2678L20.7188 13.2002C21.5235 13.57 23.0047 13.8967 24.5458 13.9139C28.1673 13.9139 30.5303 12.1166 30.5474 9.33901C30.5645 5.81321 25.6844 5.61542 25.7187 4.03311C25.7273 3.55154 26.181 3.04417 27.1827 2.91518C27.6793 2.84638 29.0406 2.80338 30.5816 3.51714L31.1895 0.679304C30.3505 0.378321 29.2803 0.0859375 27.9533 0.0859375C24.5543 0.0859375 22.1571 1.90043 22.14 4.50609ZM37.0028 0.326724C36.3436 0.326724 35.7871 0.713702 35.5388 1.30707L30.3676 13.699H33.9806L34.6997 11.7039H39.1175L39.537 13.699H42.7219L39.9394 0.326724H37.0028ZM37.5079 3.94712L38.5524 8.96923H35.6929L37.5079 3.94712ZM17.7565 0.326724L14.9055 13.7076H18.3472L21.1982 0.326724H17.7565ZM12.6538 0.326724L9.0665 9.4336L7.6196 1.69405C7.44837 0.834095 6.78057 0.326724 6.02716 0.326724H0.171065L0.0854492 0.722301C1.29263 0.988886 2.65391 1.41026 3.48438 1.85744C3.98951 2.13262 4.13506 2.37341 4.30629 3.03557L7.05454 13.7076H10.6932L16.2753 0.326724H12.6538Z" fill="url(#paint0_linear_1380_41123)"/>
</g>
<defs>
<linearGradient id="paint0_linear_1380_41123" x1="0.0854663" y1="7.00062" x2="42.7219" y2="7.00062" gradientUnits="userSpaceOnUse">
<stop stop-color="#222357"/>
<stop offset="1" stop-color="#254AA5"/>
</linearGradient>
<clipPath id="clip0_1380_41123">
<rect width="42.8077" height="14" fill="white"/>
</clipPath>
</defs>
</svg>
