<svg width="50" height="16" viewBox="0 0 50 16" fill="none" xmlns="http://www.w3.org/2000/svg">
<path d="M2.48992 0.0393066L0.00976562 5.81955H1.62383L2.08148 4.66153H4.74371L5.20136 5.81955H6.85479L4.37464 0.0393066H2.48992ZM3.41014 1.37965L4.22209 3.40003H2.59818L3.41014 1.37965Z" fill="#016FD0"/>
<path d="M7.02197 5.81467V0.0344238L9.32006 0.0442799L10.6536 3.76966L11.9577 0.0344238H14.2361V5.81467H12.7942V1.5571L11.2638 5.81467H9.99915L8.46381 1.5571V5.81467H7.02197Z" fill="#016FD0"/>
<path d="M15.2256 5.81467V0.0344238H19.9349V1.3255H16.6871V2.31597H19.8562V3.53312H16.6822V4.55809H19.93V5.81467H15.2256Z" fill="#016FD0"/>
<path d="M20.7666 0.0393066V5.81955H22.2084V3.76468H22.8137L24.5459 5.81955H26.3076L24.4081 3.69077C25.1856 3.6267 25.9926 2.95653 25.9926 1.91678C25.9926 0.699626 25.038 0.0442332 23.9751 0.0442332L20.7666 0.0393066ZM22.2084 1.33038H23.857C24.2506 1.33038 24.541 1.64082 24.541 1.93648C24.541 2.32085 24.167 2.5426 23.8766 2.5426H22.2084V1.33038Z" fill="#016FD0"/>
<path d="M28.0539 5.81467H26.5825V0.0344238H28.0539V5.81467Z" fill="#016FD0"/>
<path d="M31.5485 5.81462H31.2286C29.6884 5.81462 28.7583 4.6024 28.7583 2.9516C28.7583 1.26139 29.6834 0.0393066 31.6223 0.0393066H33.2167V1.40922H31.5682C30.7808 1.40922 30.2198 2.02519 30.2198 2.96638C30.2198 4.08498 30.8595 4.55312 31.7748 4.55312H32.1538L31.5485 5.81462Z" fill="#016FD0"/>
<path d="M34.6877 0.0393534L32.2075 5.81467H33.8216L34.2792 4.65665H36.9415L37.3991 5.81467H39.0476L36.5675 0.0344238L34.6877 0.0393534ZM35.603 1.3797L36.4149 3.40007H34.791L35.603 1.3797Z" fill="#016FD0"/>
<path d="M39.2148 5.81467V0.0344238H41.0504L43.3927 3.66617V0.0344238H44.8346V5.81467H43.0581L40.6567 2.0893V5.81467H39.2148Z" fill="#016FD0"/>
<path d="M10.5161 15.9265V10.1462H15.2255V11.4373H11.9776V12.4278H15.1516V13.6449H11.9776V14.6699H15.2255V15.9265H10.5161Z" fill="#016FD0"/>
<path d="M33.5806 15.9265V10.1462H38.2899V11.4373H35.0421V12.4278H38.2013V13.6449H35.0421V14.6699H38.2899V15.9265H33.5806Z" fill="#016FD0"/>
<path d="M15.4076 15.9265L17.7008 13.0733L15.3535 10.1462H17.1693L18.5669 11.9547L19.9694 10.1462H21.7163L19.3985 13.0339L21.6966 15.9216H19.8808L18.5226 14.1426L17.1989 15.9216L15.4076 15.9265Z" fill="#016FD0"/>
<path d="M21.8687 10.1511V15.9314H23.3499V14.1081H24.8705C26.1548 14.1081 27.1292 13.4231 27.1292 12.0976C27.1292 10.9987 26.3664 10.156 25.0574 10.156H21.8687V10.1511ZM23.3499 11.457H24.9492C25.3625 11.457 25.6627 11.7132 25.6627 12.1222C25.6627 12.5066 25.3675 12.7875 24.9443 12.7875H23.3499V11.457Z" fill="#016FD0"/>
<path d="M27.7495 10.1462V15.9265H29.1913V13.8716H29.7966L31.5288 15.9265H33.2905L31.391 13.7977C32.1685 13.7336 32.9756 13.0635 32.9756 12.0237C32.9756 10.8066 32.0209 10.1512 30.958 10.1512L27.7495 10.1462ZM29.1963 11.4422H30.8448C31.2385 11.4422 31.5288 11.7527 31.5288 12.0483C31.5288 12.4327 31.1548 12.6545 30.8645 12.6545H29.1963V11.4422Z" fill="#016FD0"/>
<path d="M38.9589 15.9264V14.6699H41.8475C42.2757 14.6699 42.4577 14.4383 42.4577 14.187C42.4577 13.9455 42.2757 13.6991 41.8475 13.6991H40.5435C39.4117 13.6991 38.7769 13.0092 38.7769 11.9695C38.7769 11.043 39.3575 10.1511 41.0405 10.1511H43.8504L43.2451 11.4521H40.8141C40.3516 11.4521 40.2089 11.6984 40.2089 11.93C40.2089 12.1715 40.386 12.4327 40.7403 12.4327H42.1083C43.373 12.4327 43.9193 13.1521 43.9193 14.0933C43.9193 15.1035 43.3091 15.9314 42.0394 15.9314H38.9589V15.9264Z" fill="#016FD0"/>
<path d="M44.2543 15.9264V14.6699H47.1429C47.571 14.6699 47.7531 14.4383 47.7531 14.187C47.7531 13.9455 47.571 13.6991 47.1429 13.6991H45.8389C44.7071 13.6991 44.0723 13.0092 44.0723 11.9695C44.0723 11.043 44.6529 10.1511 46.3359 10.1511H49.1457L48.5404 11.4521H46.1095C45.6469 11.4521 45.5042 11.6984 45.5042 11.93C45.5042 12.1715 45.6814 12.4327 46.0357 12.4327H47.4037C48.6684 12.4327 49.2146 13.1521 49.2146 14.0933C49.2146 15.1035 48.6044 15.9314 47.3348 15.9314H44.2543V15.9264Z" fill="#016FD0"/>
</svg>
